<?xml version="1.0" standalone="no"?>
<!DOCTYPE svg PUBLIC "-//W3C//DTD SVG 1.1//EN"
"http://www.w3.org/Graphics/SVG/1.1/DTD/svg11.dtd">

<svg width="483" height="458" view_box="0 0 483 458"
xmlns="http://www.w3.org/2000/svg"
xmlns:link="http://www.w3.org/1999/xlink">\n\n<desc>Généré par Mocodo 2.3.7 le Thu, 25 Oct 2018 08:16:34</desc>

<rect id="frame" x="0" y="0" width="483" height="458" fill="#f7f7f7" stroke="none" stroke-width="0"/>

<!-- Association toSelect -->
<line x1="438" y1="94" x2="438" y2="364" stroke="#d6604d" stroke-width="2"/>
<text x="443.0" y="196" fill="#2166ac" font-family="Verdana" font-size="12">0,N</text>
<line x1="337" y1="364" x2="438" y2="364" stroke="#d6604d" stroke-width="2"/>
<text x="371" y="381.0" fill="#2166ac" font-family="Verdana" font-size="12">0,N</text>
<g id="association-toSelect">
	<path d="M 456 339 a 14 14 90 0 1 14 14 V 364 h -64 V 353 a 14 14 90 0 1 14 -14" fill="#f4a582" stroke="#f4a582" stroke-width="0"/>
	<path d="M 470 364.0 v 11 a 14 14 90 0 1 -14 14 H 420 a 14 14 90 0 1 -14 -14 V 364.0 H 64" fill="#fddbc7" stroke="#fddbc7" stroke-width="0"/>
	<rect x="406" y="339" width="64" height="50" fill="none" rx="14" stroke="#d6604d" stroke-width="2"/>
	<line x1="406" y1="364" x2="470" y2="364" stroke="#d6604d" stroke-width="1"/>
	<text x="413" y="356.7" fill="#000000" font-family="Verdana" font-size="12">toSelect</text>
</g>

<!-- Association toDescribe -->
<line x1="337" y1="364" x2="337" y2="229" stroke="#d6604d" stroke-width="2"/>
<text x="342.0" y="297" fill="#2166ac" font-family="Verdana" font-size="12">0,N</text>
<line x1="219" y1="94" x2="337" y2="229" stroke="#d6604d" stroke-width="2"/>
<text x="247" y="118.714140769" fill="#2166ac" font-family="Verdana" font-size="12">0,N</text>
<g id="association-toDescribe">
	<path d="M 363 204 a 14 14 90 0 1 14 14 V 229 h -80 V 218 a 14 14 90 0 1 14 -14" fill="#f4a582" stroke="#f4a582" stroke-width="0"/>
	<path d="M 377 229.0 v 11 a 14 14 90 0 1 -14 14 H 311 a 14 14 90 0 1 -14 -14 V 229.0 H 80" fill="#fddbc7" stroke="#fddbc7" stroke-width="0"/>
	<rect x="297" y="204" width="80" height="50" fill="none" rx="14" stroke="#d6604d" stroke-width="2"/>
	<line x1="297" y1="229" x2="377" y2="229" stroke="#d6604d" stroke-width="1"/>
	<text x="304" y="221.7" fill="#000000" font-family="Verdana" font-size="12">toDescribe</text>
</g>

<!-- Association toInherite -->
<path d="M219 94 C 213.333333333 127.333333333 167.0 127.333333333 80 94" fill="none" stroke="#d6604d" stroke-width="2"/>
<text x="169" y="109.0" fill="#2166ac" font-family="Verdana" font-size="12">0,N</text>
<path d="M219 94 C 214.0 60.6666666667 167.666666667 60.6666666667 80 94" fill="none" stroke="#d6604d" stroke-width="2"/>
<text x="170" y="88.0" fill="#2166ac" font-family="Verdana" font-size="12">0,1</text>
<g id="association-toInherite">
	<path d="M 104 69 a 14 14 90 0 1 14 14 V 94 h -76 V 83 a 14 14 90 0 1 14 -14" fill="#f4a582" stroke="#f4a582" stroke-width="0"/>
	<path d="M 118 94.0 v 11 a 14 14 90 0 1 -14 14 H 56 a 14 14 90 0 1 -14 -14 V 94.0 H 76" fill="#fddbc7" stroke="#fddbc7" stroke-width="0"/>
	<rect x="42" y="69" width="76" height="50" fill="none" rx="14" stroke="#d6604d" stroke-width="2"/>
	<line x1="42" y1="94" x2="118" y2="94" stroke="#d6604d" stroke-width="1"/>
	<text x="49" y="86.7" fill="#000000" font-family="Verdana" font-size="12">toInherite</text>
</g>

<!-- Association toProvide -->
<line x1="80" y1="364" x2="219" y2="364" stroke="#d6604d" stroke-width="2"/>
<text x="156" y="381.0" fill="#2166ac" font-family="Verdana" font-size="12">0,N</text>
<line x1="337" y1="364" x2="219" y2="364" stroke="#d6604d" stroke-width="2"/>
<text x="282" y="381.0" fill="#2166ac" font-family="Verdana" font-size="12">1,1</text>
<g id="association-toProvide">
	<path d="M 241 339 a 14 14 90 0 1 14 14 V 364 h -72 V 353 a 14 14 90 0 1 14 -14" fill="#f4a582" stroke="#f4a582" stroke-width="0"/>
	<path d="M 255 364.0 v 11 a 14 14 90 0 1 -14 14 H 197 a 14 14 90 0 1 -14 -14 V 364.0 H 72" fill="#fddbc7" stroke="#fddbc7" stroke-width="0"/>
	<rect x="183" y="339" width="72" height="50" fill="none" rx="14" stroke="#d6604d" stroke-width="2"/>
	<line x1="183" y1="364" x2="255" y2="364" stroke="#d6604d" stroke-width="1"/>
	<text x="190" y="356.7" fill="#000000" font-family="Verdana" font-size="12">toProvide</text>
</g>

<!-- Association toCategorize -->
<line x1="80" y1="364" x2="219" y2="229" stroke="#d6604d" stroke-width="2"/>
<text x="156" y="305.118133916" fill="#2166ac" font-family="Verdana" font-size="12">0,N</text>
<line x1="219" y1="94" x2="219" y2="229" stroke="#d6604d" stroke-width="2"/>
<text x="192.0" y="145" fill="#2166ac" font-family="Verdana" font-size="12">0,N</text>
<g id="association-toCategorize">
	<path d="M 251 204 a 14 14 90 0 1 14 14 V 229 h -92 V 218 a 14 14 90 0 1 14 -14" fill="#f4a582" stroke="#f4a582" stroke-width="0"/>
	<path d="M 265 229.0 v 11 a 14 14 90 0 1 -14 14 H 187 a 14 14 90 0 1 -14 -14 V 229.0 H 92" fill="#fddbc7" stroke="#fddbc7" stroke-width="0"/>
	<rect x="173" y="204" width="92" height="50" fill="none" rx="14" stroke="#d6604d" stroke-width="2"/>
	<line x1="173" y1="229" x2="265" y2="229" stroke="#d6604d" stroke-width="1"/>
	<text x="180" y="221.7" fill="#000000" font-family="Verdana" font-size="12">toCategorize</text>
</g>

<!-- Association toAssign -->
<line x1="219" y1="94" x2="337" y2="94" stroke="#d6604d" stroke-width="2"/>
<text x="247" y="86.0" fill="#2166ac" font-family="Verdana" font-size="12">0,N</text>
<line x1="438" y1="94" x2="337" y2="94" stroke="#d6604d" stroke-width="2"/>
<text x="376" y="111.0" fill="#2166ac" font-family="Verdana" font-size="12">1,1</text>
<g id="association-toAssign">
	<path d="M 356 69 a 14 14 90 0 1 14 14 V 94 h -66 V 83 a 14 14 90 0 1 14 -14" fill="#f4a582" stroke="#f4a582" stroke-width="0"/>
	<path d="M 370 94.0 v 11 a 14 14 90 0 1 -14 14 H 318 a 14 14 90 0 1 -14 -14 V 94.0 H 66" fill="#fddbc7" stroke="#fddbc7" stroke-width="0"/>
	<rect x="304" y="69" width="66" height="50" fill="none" rx="14" stroke="#d6604d" stroke-width="2"/>
	<line x1="304" y1="94" x2="370" y2="94" stroke="#d6604d" stroke-width="1"/>
	<text x="311" y="86.7" fill="#000000" font-family="Verdana" font-size="12">toAssign</text>
</g>

<!-- Entity RSSSources -->
<g id="entity-RSSSources">
	<g id="frame-RSSSources">
		<rect x="9" y="279" width="142" height="25" fill="#92c5de" stroke="#92c5de" stroke-width="0"/>
		<rect x="9" y="304.0" width="142" height="145" fill="#d1e5f0" stroke="#d1e5f0" stroke-width="0"/>
		<rect x="9" y="279" width="142" height="170" fill="none" stroke="#4393c3" stroke-width="2"/>
		<line x1="9" y1="304" x2="151" y2="304" stroke="#4393c3" stroke-width="1"/>
	</g>
	<text x="43" y="296.7" fill="#000000" font-family="Verdana" font-size="12">RSSSources</text>
	<text x="14" y="321.7" fill="#000000" font-family="Verdana" font-size="12">id</text>
	<line x1="14" y1="324" x2="26" y2="324" stroke="#000000" stroke-width="1"/>
	<text x="14" y="338.7" fill="#000000" font-family="Verdana" font-size="12">name</text>
	<text x="14" y="355.7" fill="#000000" font-family="Verdana" font-size="12">website</text>
	<text x="14" y="372.8" fill="#000000" font-family="Verdana" font-size="12">timeBtwUpdate</text>
	<text x="14" y="389.8" fill="#000000" font-family="Verdana" font-size="12">lastUpdate</text>
	<text x="14" y="406.8" fill="#000000" font-family="Verdana" font-size="12">lastSuccessUpdate</text>
	<text x="14" y="423.8" fill="#000000" font-family="Verdana" font-size="12">numberAttemptFailed</text>
	<text x="14" y="440.8" fill="#000000" font-family="Verdana" font-size="12">updateMessage</text>
</g>

<!-- Entity Articles -->
<g id="entity-Articles">
	<g id="frame-Articles">
		<rect x="308" y="305" width="58" height="25" fill="#92c5de" stroke="#92c5de" stroke-width="0"/>
		<rect x="308" y="330.0" width="58" height="93" fill="#d1e5f0" stroke="#d1e5f0" stroke-width="0"/>
		<rect x="308" y="305" width="58" height="118" fill="none" stroke="#4393c3" stroke-width="2"/>
		<line x1="308" y1="330" x2="366" y2="330" stroke="#4393c3" stroke-width="1"/>
	</g>
	<text x="314" y="322.7" fill="#000000" font-family="Verdana" font-size="12">Articles</text>
	<text x="313" y="347.7" fill="#000000" font-family="Verdana" font-size="12">id</text>
	<line x1="313" y1="350" x2="325" y2="350" stroke="#000000" stroke-width="1"/>
	<text x="313" y="364.8" fill="#000000" font-family="Verdana" font-size="12">title</text>
	<text x="313" y="381.8" fill="#000000" font-family="Verdana" font-size="12">preview</text>
	<text x="313" y="398.8" fill="#000000" font-family="Verdana" font-size="12">date</text>
	<text x="313" y="415.8" fill="#000000" font-family="Verdana" font-size="12">link</text>
</g>

<!-- Entity Users -->
<g id="entity-Users">
	<g id="frame-Users">
		<rect x="402" y="9" width="72" height="25" fill="#92c5de" stroke="#92c5de" stroke-width="0"/>
		<rect x="402" y="34.0" width="72" height="145" fill="#d1e5f0" stroke="#d1e5f0" stroke-width="0"/>
		<rect x="402" y="9" width="72" height="170" fill="none" stroke="#4393c3" stroke-width="2"/>
		<line x1="402" y1="34" x2="474" y2="34" stroke="#4393c3" stroke-width="1"/>
	</g>
	<text x="420" y="26.7" fill="#000000" font-family="Verdana" font-size="12">Users</text>
	<text x="407" y="51.7" fill="#000000" font-family="Verdana" font-size="12">id</text>
	<line x1="407" y1="54" x2="419" y2="54" stroke="#000000" stroke-width="1"/>
	<text x="407" y="68.7" fill="#000000" font-family="Verdana" font-size="12">name</text>
	<text x="407" y="85.7" fill="#000000" font-family="Verdana" font-size="12">email</text>
	<text x="407" y="102.8" fill="#000000" font-family="Verdana" font-size="12">password</text>
	<text x="407" y="119.8" fill="#000000" font-family="Verdana" font-size="12">level</text>
	<text x="407" y="136.8" fill="#000000" font-family="Verdana" font-size="12">clubName</text>
	<text x="407" y="153.8" fill="#000000" font-family="Verdana" font-size="12">clubURL</text>
	<text x="407" y="170.8" fill="#000000" font-family="Verdana" font-size="12">logo</text>
</g>

<!-- Entity Tags -->
<g id="entity-Tags">
	<g id="frame-Tags">
		<rect x="196" y="60" width="46" height="25" fill="#92c5de" stroke="#92c5de" stroke-width="0"/>
		<rect x="196" y="85.0" width="46" height="43" fill="#d1e5f0" stroke="#d1e5f0" stroke-width="0"/>
		<rect x="196" y="60" width="46" height="68" fill="none" stroke="#4393c3" stroke-width="2"/>
		<line x1="196" y1="85" x2="242" y2="85" stroke="#4393c3" stroke-width="1"/>
	</g>
	<text x="204" y="77.7" fill="#000000" font-family="Verdana" font-size="12">Tags</text>
	<text x="201" y="102.8" fill="#000000" font-family="Verdana" font-size="12">id</text>
	<line x1="201" y1="105" x2="213" y2="105" stroke="#000000" stroke-width="1"/>
	<text x="201" y="119.8" fill="#000000" font-family="Verdana" font-size="12">name</text>
</g>
</svg>